<svg width="52" height="67" viewBox="0 0 52 67" fill="none" xmlns="http://www.w3.org/2000/svg">
<path fill-rule="evenodd" clip-rule="evenodd" d="M5.80097e-07 64.9048V8.37481C5.80097e-07 6.15367 0.913093 4.02351 2.53841 2.45292C4.16372 0.882343 6.36812 0 8.66667 0L43.3333 0C45.6319 0 47.8363 0.882343 49.4616 2.45292C51.0869 4.02351 52 6.15367 52 8.37481V64.9048C52.0003 65.2683 51.9026 65.6257 51.7165 65.9417C51.5304 66.2577 51.2624 66.5215 50.9388 66.707C50.6152 66.8925 50.2472 66.9934 49.871 66.9997C49.4948 67.006 49.1234 66.9176 48.7933 66.743L26 54.7252L3.20667 66.743C2.87659 66.9176 2.50518 67.006 2.12899 66.9997C1.7528 66.9934 1.38479 66.8925 1.0612 66.707C0.737605 66.5215 0.46958 66.2577 0.283507 65.9417C0.0974329 65.6257 -0.000274707 65.2683 5.80097e-07 64.9048ZM38.3673 24.5131C38.7742 24.1199 39.0027 23.5867 39.0027 23.0307C39.0027 22.4747 38.7742 21.9415 38.3673 21.5484C37.9605 21.1552 37.4087 20.9344 36.8333 20.9344C36.258 20.9344 35.7062 21.1552 35.2993 21.5484L23.8333 32.6324L18.8673 27.8295C18.6659 27.6348 18.4267 27.4804 18.1635 27.3751C17.9003 27.2697 17.6182 27.2155 17.3333 27.2155C17.0484 27.2155 16.7663 27.2697 16.5031 27.3751C16.2399 27.4804 16.0008 27.6348 15.7993 27.8295C15.5979 28.0242 15.4381 28.2553 15.3291 28.5096C15.22 28.7639 15.1639 29.0365 15.1639 29.3118C15.1639 29.5871 15.22 29.8597 15.3291 30.1141C15.4381 30.3684 15.5979 30.5995 15.7993 30.7942L22.2993 37.0753C22.5006 37.2703 22.7397 37.4249 23.0029 37.5305C23.2662 37.636 23.5483 37.6904 23.8333 37.6904C24.1183 37.6904 24.4005 37.636 24.6637 37.5305C24.927 37.4249 25.1661 37.2703 25.3673 37.0753L38.3673 24.5131Z" fill="black"/>
</svg>
