<svg width="54" height="67" viewBox="0 0 54 67" fill="none" xmlns="http://www.w3.org/2000/svg">
<path fill-rule="evenodd" clip-rule="evenodd" d="M0.750001 64.9062V8.375C0.750001 6.15381 1.67187 4.0236 3.31282 2.45298C4.95376 0.882364 7.17936 0 9.5 0L44.5 0C46.8206 0 49.0462 0.882364 50.6872 2.45298C52.3281 4.0236 53.25 6.15381 53.25 8.375V64.9062C53.2503 65.2698 53.1516 65.6272 52.9638 65.9432C52.7759 66.2592 52.5053 66.523 52.1786 66.7085C51.8519 66.894 51.4804 66.9949 51.1005 67.0012C50.7207 67.0075 50.3457 66.9191 50.0125 66.7446L27 54.7264L3.9875 66.7446C3.65425 66.9191 3.27927 67.0075 2.89946 67.0012C2.51965 66.9949 2.14811 66.894 1.8214 66.7085C1.4947 66.523 1.2241 66.2592 1.03623 65.9432C0.84837 65.6272 0.749723 65.2698 0.750001 64.9062ZM29.1875 18.8438C29.1875 18.2885 28.957 17.7559 28.5468 17.3632C28.1366 16.9706 27.5802 16.75 27 16.75C26.4198 16.75 25.8634 16.9706 25.4532 17.3632C25.043 17.7559 24.8125 18.2885 24.8125 18.8438V25.125H18.25C17.6698 25.125 17.1134 25.3456 16.7032 25.7382C16.293 26.1309 16.0625 26.6635 16.0625 27.2188C16.0625 27.774 16.293 28.3066 16.7032 28.6993C17.1134 29.0919 17.6698 29.3125 18.25 29.3125H24.8125V35.5938C24.8125 36.149 25.043 36.6816 25.4532 37.0743C25.8634 37.4669 26.4198 37.6875 27 37.6875C27.5802 37.6875 28.1366 37.4669 28.5468 37.0743C28.957 36.6816 29.1875 36.149 29.1875 35.5938V29.3125H35.75C36.3302 29.3125 36.8866 29.0919 37.2968 28.6993C37.707 28.3066 37.9375 27.774 37.9375 27.2188C37.9375 26.6635 37.707 26.1309 37.2968 25.7382C36.8866 25.3456 36.3302 25.125 35.75 25.125H29.1875V18.8438Z" fill="#262627"/>
</svg>
