<svg width="110" height="129" viewBox="0 0 110 129" fill="none" xmlns="http://www.w3.org/2000/svg">
<path d="M55 128.951L52.5601 128.002C50.6084 126.106 0.334961 81.9977 0.334961 53.5392H0.336249C0.336249 39.4507 6.09467 25.9393 16.3464 15.9791C26.5982 6.01671 40.5007 0.419556 54.9975 0.419556C69.4943 0.419556 83.3991 6.01671 93.6519 15.9791C103.904 25.9402 109.662 39.4516 109.662 53.5392C109.662 81.9968 59.3926 126.105 57.4369 128.002L55 128.951ZM55 7.05728C42.3147 7.05728 30.1489 11.9545 21.1803 20.6712C12.2104 29.3879 7.17192 41.2107 7.17192 53.5363C7.17192 75.8285 44.7545 111.399 55.0043 120.411C65.2534 111.4 102.837 75.8288 102.837 53.5363H102.835C102.835 41.2091 97.7958 29.3866 88.826 20.6712C79.8561 11.9545 67.6912 7.05728 55.0063 7.05728H55Z" fill="#D19600"/>
<path d="M54.9999 87.6897C45.6807 87.6897 36.7418 84.093 30.1524 77.6885C23.5619 71.2841 19.8594 62.5985 19.8594 53.5411C19.8594 41.3418 26.557 30.0673 37.4294 23.9683C48.3022 17.868 61.6985 17.868 72.5683 23.9683C83.441 30.0673 90.1397 41.3418 90.1397 53.5411C90.1397 62.5985 86.4371 71.2838 79.8467 77.6885C73.2562 84.0933 64.3183 87.6897 54.9979 87.6897H54.9999ZM54.9999 26.0328C47.4919 26.0328 40.292 28.9309 34.9834 34.09C29.6745 39.249 26.6922 46.2457 26.6922 53.5414C26.6922 60.8371 29.6745 67.8341 34.9834 72.9929C40.2923 78.152 47.4922 81.05 54.9999 81.05C62.5075 81.05 69.7077 78.152 75.0163 72.9929C80.3252 67.8338 83.3088 60.8371 83.3088 53.5414C83.3088 46.2457 80.3252 39.2487 75.0163 34.09C69.7074 28.9309 62.5075 26.0328 54.9999 26.0328Z" fill="#D19600"/>
<path d="M63.2974 65.3972H61.8327L50.6071 59.7062L50.6084 59.7049C49.9539 59.591 49.3768 59.2242 49.0084 58.6872C48.6399 58.1501 48.5124 57.4904 48.6554 56.8594V39.7853C48.6554 37.9513 50.1845 36.4654 52.0717 36.4654C54.0517 36.4504 55.729 37.8775 55.9763 39.7853V54.0139L65.249 58.7573H65.2503C66.8786 59.7676 67.5008 61.7843 66.7137 63.4994C66.0103 64.6849 64.7053 65.4098 63.2974 65.3973V65.3972Z" fill="#710C3E"/>
</svg>
